# xmcd
#
# Track frame offsets:
#	180
#	12347
#	25213
#	35166
#	45630
#	56037
#	66910
#	80197
#	93854
#	105258
#	115729
#	125970
#
# Disc length: 1837
#
# Revision: 1
# Processed by: cddbd v1.5.1PL0 Copyright (c) Steve Scherf et al.
# Submitted via: CD-DA_X-Tractor v0.23
# Normalized: r0:TDELIM( - )
#
DISCID=a3072b0c
DTITLE=Various Artist - Super Box of Country Favorites Disc 3
DYEAR=2003
DGENRE=
TTITLE0=Johnny Paycheck - Take This Job And Shove It
TTITLE1=Claude King - Wolverton Mountain
TTITLE2=Hank Locklin - Please Help Me, I'm Falling
TTITLE3=George Hamilton IV - Abilene
TTITLE4=Faron Young - Hello Walls
TTITLE5=Ferlin Husky - Wings Of A Dove
TTITLE6=Wanda Jackson - I Fall To Pieces
TTITLE7=Jimmy Dean - Big Bad John
TTITLE8=Kitty Wells - It Wasn't God Who Made Honky Tonk Angels
TTITLE9=Dave Dudley - Six Days On The Road
TTITLE10=Porter Wagoner - Green, Green, Grass of Home
TTITLE11=Donna Fargo - THe Happiest Girl In The Whole USA
EXTD=
EXTT0=
EXTT1=
EXTT2=
EXTT3=
EXTT4=
EXTT5=
EXTT6=
EXTT7=
EXTT8=
EXTT9=
EXTT10=
EXTT11=
PLAYORDER=
